<svg xmlns="http://www.w3.org/2000/svg" viewBox="20 162.94798328238124 534.9866887624537 249.10472078769038"> <svg xmlns="http://www.w3.org/2000/svg" xmlns:xlink="http://www.w3.org/1999/xlink" version="1.1" x="90" y="232.94798328238124" viewBox="3.5 3.5 78.20000457763672 78" xml:space="preserve" height="109.10403343523754" width="109.38388387264098" preserveAspectRatio="xMinYMin" enable-background="new 0 0 85 85" style="overflow: visible;"><g id="Layer_3" style=""></g><path class="st260" d="M77.9,7.1c-2.2-2.2-5.3-3.6-8.7-3.6l-53.5,0C9,3.5,3.5,9,3.5,15.8v27.4c0,8.3,8.6,13.9,16.1,10.3    c2.8-1.3,5.1-3.3,6.6-4.9v0l0.7-0.7l-7.8-7.8c-2.3-2.3-1.3-6.3,1.9-7.1l35.3-9.5c3.2-0.8,6.1,2,5.2,5.2L52.1,64    c-0.8,3.2-4.8,4.2-7.1,1.9l-7.8-7.8l-0.7,0.7c-1.5,1.5-3.5,3.8-4.9,6.6c-3.6,7.4,2,16.1,10.3,16.1l27.4,0    c6.8,0,12.3-5.5,12.3-12.3l0-53.5C81.5,12.4,80.2,9.3,77.9,7.1z" style="fill: #c22af6; fill-opacity: 1;"></path><path class="st8" d="M77.9,7.1c-2.2-2.2-5.3-3.6-8.7-3.6H40.2c18.1,3,25.1,11.1,21.4,25.2c0,0,0,0,0,0L52.1,64    c-0.8,3.2-4.8,4.2-7.1,1.9l-7.8-7.8l-0.7,0.7c-1.5,1.5-3.5,3.8-4.8,6.6c-3.6,7.4,2,16.1,10.3,16.1h27.4c6.8,0,12.3-5.5,12.3-12.3    V15.8C81.5,12.4,80.2,9.3,77.9,7.1z" style="fill: #62d4f9; fill-opacity: 1;"></path></svg> <svg x="220.47667899682875" y="324.5327055196566" viewBox="1.1700000762939453 6.360000133514404 252.5 17.51999855041504" height="17.51999855041504" width="252.5" style="overflow: visible;"><g fill="#c22af6" fill-opacity="1" style=""><path d="M10.30 23.88L10.30 23.88Q8.34 23.88 6.67 23.22Q4.99 22.56 3.77 21.38Q2.55 20.19 1.86 18.60Q1.17 17.01 1.17 15.12L1.17 15.12Q1.17 13.24 1.86 11.65Q2.55 10.06 3.77 8.87Q4.99 7.68 6.66 7.02Q8.32 6.36 10.30 6.36L10.30 6.36Q12.26 6.36 13.91 7.01Q15.56 7.66 16.80 8.85Q18.04 10.03 18.71 11.62Q19.38 13.21 19.38 15.12L19.38 15.12Q19.38 17.03 18.71 18.62Q18.04 20.21 16.80 21.40Q15.56 22.59 13.91 23.24Q12.26 23.88 10.30 23.88ZM10.30 21.71L10.30 21.71Q11.72 21.71 12.93 21.22Q14.14 20.73 15.04 19.83Q15.93 18.94 16.43 17.74Q16.93 16.54 16.93 15.12L16.93 15.12Q16.93 13.70 16.43 12.50Q15.93 11.31 15.04 10.41Q14.14 9.52 12.93 9.03Q11.72 8.54 10.30 8.54L10.30 8.54Q8.86 8.54 7.65 9.03Q6.44 9.52 5.53 10.41Q4.63 11.31 4.12 12.50Q3.62 13.70 3.62 15.12L3.62 15.12Q3.62 16.54 4.12 17.74Q4.63 18.94 5.53 19.83Q6.44 20.73 7.65 21.22Q8.86 21.71 10.30 21.71ZM25.57 23.69L23.13 23.69L23.13 6.56L29.81 6.56Q32.06 6.56 33.65 7.27Q35.24 7.98 36.10 9.32Q36.95 10.67 36.95 12.53L36.95 12.53Q36.95 14.39 36.10 15.72Q35.24 17.06 33.65 17.77Q32.06 18.48 29.81 18.48L29.81 18.48L24.47 18.48L25.57 17.35L25.57 23.69ZM37.25 23.69L34.58 23.69L30.22 17.47L32.84 17.47L37.25 23.69ZM25.57 7.46L25.57 17.60L24.47 16.40L29.73 16.40Q32.08 16.40 33.29 15.38Q34.50 14.36 34.50 12.53L34.50 12.53Q34.50 10.69 33.29 9.69Q32.08 8.69 29.73 8.69L29.73 8.69L24.47 8.69L25.57 7.46ZM48.14 23.69L40.92 23.69L40.92 6.56L48.14 6.56Q50.88 6.56 52.97 7.64Q55.06 8.71 56.22 10.65Q57.39 12.58 57.39 15.12L57.39 15.12Q57.39 17.67 56.22 19.60Q55.06 21.53 52.97 22.61Q50.88 23.69 48.14 23.69L48.14 23.69ZM43.36 8.69L43.36 21.56L47.99 21.56Q50.12 21.56 51.67 20.75Q53.23 19.94 54.08 18.49Q54.94 17.03 54.94 15.12L54.94 15.12Q54.94 13.19 54.08 11.75Q53.23 10.30 51.67 9.49Q50.12 8.69 47.99 8.69L47.99 8.69L43.36 8.69ZM63.36 16.03L63.36 13.95L72.17 13.95L72.17 16.03L63.36 16.03ZM63.58 8.69L63.58 21.56L73.56 21.56L73.56 23.69L61.13 23.69L61.13 6.56L73.22 6.56L73.22 8.69L63.58 8.69ZM79.97 23.69L77.53 23.69L77.53 6.56L84.21 6.56Q86.46 6.56 88.05 7.27Q89.64 7.98 90.50 9.32Q91.35 10.67 91.35 12.53L91.35 12.53Q91.35 14.39 90.50 15.72Q89.64 17.06 88.05 17.77Q86.46 18.48 84.21 18.48L84.21 18.48L78.87 18.48L79.97 17.35L79.97 23.69ZM91.65 23.69L88.98 23.69L84.62 17.47L87.24 17.47L91.65 23.69ZM79.97 7.46L79.97 17.60L78.87 16.40L84.13 16.40Q86.48 16.40 87.69 15.38Q88.91 14.36 88.91 12.53L88.91 12.53Q88.91 10.69 87.69 9.69Q86.48 8.69 84.13 8.69L84.13 8.69L78.87 8.69L79.97 7.46ZM104.25 23.69L101.90 23.69L101.90 6.56L103.91 6.56L111.59 19.50L110.51 19.50L118.10 6.56L120.11 6.56L120.13 23.69L117.78 23.69L117.76 10.25L118.32 10.25L111.57 21.61L110.44 21.61L103.64 10.25L104.25 10.25L104.25 23.69ZM131.83 23.69L129.41 23.69L129.41 17.13L129.97 18.65L122.60 6.56L125.22 6.56L131.41 16.76L129.99 16.76L136.21 6.56L138.63 6.56L131.29 18.65L131.83 17.13L131.83 23.69ZM150.13 23.69L147.69 23.69L147.69 6.56L154.37 6.56Q156.62 6.56 158.21 7.27Q159.80 7.98 160.66 9.32Q161.51 10.67 161.51 12.53L161.51 12.53Q161.51 14.39 160.66 15.72Q159.80 17.06 158.21 17.78Q156.62 18.50 154.37 18.50L154.37 18.50L149.03 18.50L150.13 17.35L150.13 23.69ZM150.13 7.46L150.13 17.60L149.03 16.37L154.29 16.37Q156.64 16.37 157.85 15.37Q159.07 14.36 159.07 12.53L159.07 12.53Q159.07 10.69 157.85 9.69Q156.64 8.69 154.29 8.69L154.29 8.69L149.03 8.69L150.13 7.46ZM177.64 23.69L177.64 6.56L180.09 6.56L180.09 23.69L177.64 23.69ZM167.80 6.56L167.80 23.69L165.35 23.69L165.35 6.56L167.80 6.56ZM177.86 13.92L177.86 16.05L167.56 16.05L167.56 13.92L177.86 13.92ZM192.96 23.88L192.96 23.88Q191.00 23.88 189.32 23.22Q187.65 22.56 186.42 21.38Q185.20 20.19 184.52 18.60Q183.83 17.01 183.83 15.12L183.83 15.12Q183.83 13.24 184.52 11.65Q185.20 10.06 186.42 8.87Q187.65 7.68 189.31 7.02Q190.98 6.36 192.96 6.36L192.96 6.36Q194.92 6.36 196.57 7.01Q198.22 7.66 199.46 8.85Q200.69 10.03 201.36 11.62Q202.04 13.21 202.04 15.12L202.04 15.12Q202.04 17.03 201.36 18.62Q200.69 20.21 199.46 21.40Q198.22 22.59 196.57 23.24Q194.92 23.88 192.96 23.88ZM192.96 21.71L192.96 21.71Q194.38 21.71 195.59 21.22Q196.80 20.73 197.69 19.83Q198.59 18.94 199.09 17.74Q199.59 16.54 199.59 15.12L199.59 15.12Q199.59 13.70 199.09 12.50Q198.59 11.31 197.69 10.41Q196.80 9.52 195.59 9.03Q194.38 8.54 192.96 8.54L192.96 8.54Q191.51 8.54 190.30 9.03Q189.09 9.52 188.19 10.41Q187.28 11.31 186.78 12.50Q186.28 13.70 186.28 15.12L186.28 15.12Q186.28 16.54 186.78 17.74Q187.28 18.94 188.19 19.83Q189.09 20.73 190.30 21.22Q191.51 21.71 192.96 21.71ZM208.23 23.69L205.78 23.69L205.78 6.56L207.79 6.56L219.12 20.63L218.07 20.63L218.07 6.56L220.51 6.56L220.51 23.69L218.51 23.69L207.18 9.62L208.23 9.62L208.23 23.69ZM227.88 16.03L227.88 13.95L236.69 13.95L236.69 16.03L227.88 16.03ZM228.10 8.69L228.10 21.56L238.08 21.56L238.08 23.69L225.65 23.69L225.65 6.56L237.74 6.56L237.74 8.69L228.10 8.69ZM247.04 23.88L247.04 23.88Q245.08 23.88 243.30 23.28Q241.51 22.69 240.48 21.73L240.48 21.73L241.39 19.82Q242.37 20.68 243.88 21.24Q245.40 21.80 247.04 21.80L247.04 21.80Q248.53 21.80 249.46 21.46Q250.39 21.12 250.83 20.52Q251.27 19.92 251.27 19.16L251.27 19.16Q251.27 18.28 250.70 17.74Q250.12 17.20 249.21 16.87Q248.29 16.54 247.19 16.30Q246.09 16.05 244.97 15.72Q243.86 15.39 242.94 14.88Q242.02 14.36 241.46 13.50Q240.90 12.63 240.90 11.26L240.90 11.26Q240.90 9.94 241.60 8.82Q242.29 7.71 243.75 7.04Q245.21 6.36 247.46 6.36L247.46 6.36Q248.95 6.36 250.42 6.75Q251.89 7.15 252.96 7.88L252.96 7.88L252.16 9.84Q251.05 9.10 249.83 8.77Q248.61 8.44 247.46 8.44L247.46 8.44Q246.01 8.44 245.08 8.81Q244.15 9.18 243.72 9.79Q243.30 10.40 243.30 11.16L243.30 11.16Q243.30 12.06 243.87 12.60Q244.45 13.14 245.36 13.46Q246.28 13.78 247.38 14.03Q248.48 14.29 249.60 14.61Q250.71 14.93 251.63 15.44Q252.55 15.96 253.11 16.81Q253.67 17.67 253.67 19.01L253.67 19.01Q253.67 20.31 252.96 21.42Q252.25 22.54 250.77 23.21Q249.29 23.88 247.04 23.88Z" transform="translate(0, 0)"></path></g></svg> <svg x="220.4766789968287" y="232.9485564559294" viewBox="4.210000038146973 27.639999389648438 264.510009765625 78.16000366210938" height="78.16000366210938" width="264.510009765625" style="overflow: visible;"><g fill="#000000" fill-opacity="1" style=""><path d="M45.67 105.80L45.67 105.80Q36.71 105.80 29.10 102.89Q21.48 99.97 15.92 94.68Q10.36 89.39 7.29 82.27Q4.21 75.14 4.21 66.72L4.21 66.72Q4.21 58.30 7.29 51.17Q10.36 44.05 15.98 38.76Q21.59 33.47 29.15 30.55Q36.71 27.64 45.56 27.64L45.56 27.64Q54.52 27.64 62.02 30.55Q69.53 33.47 75.09 38.76Q80.65 44.05 83.78 51.12Q86.91 58.19 86.91 66.72L86.91 66.72Q86.91 75.14 83.78 82.32Q80.65 89.50 75.09 94.74Q69.53 99.97 62.02 102.89Q54.52 105.80 45.67 105.80ZM45.56 90.90L45.56 90.90Q50.63 90.90 54.90 89.18Q59.16 87.45 62.40 84.21Q65.64 80.97 67.42 76.55Q69.20 72.12 69.20 66.72L69.20 66.72Q69.20 61.32 67.42 56.90Q65.64 52.47 62.46 49.23Q59.27 45.99 54.95 44.26Q50.63 42.54 45.56 42.54L45.56 42.54Q40.49 42.54 36.22 44.26Q31.96 45.99 28.72 49.23Q25.48 52.47 23.70 56.90Q21.92 61.32 21.92 66.72L21.92 66.72Q21.92 72.01 23.70 76.49Q25.48 80.97 28.66 84.21Q31.85 87.45 36.17 89.18Q40.49 90.90 45.56 90.90ZM116.49 104.51L100.08 104.51L100.08 28.93L114.55 28.93L146.72 82.27L139.06 82.27L170.69 28.93L185.05 28.93L185.26 104.51L168.85 104.51L168.75 54.09L171.77 54.09L146.51 96.52L138.62 96.52L112.82 54.09L116.49 54.09L116.49 104.51ZM220.68 104.51L203.19 104.51L203.19 28.93L235.90 28.93Q246.05 28.93 253.39 32.23Q260.73 35.52 264.72 41.67Q268.72 47.83 268.72 56.36L268.72 56.36Q268.72 64.78 264.72 70.93Q260.73 77.09 253.39 80.38Q246.05 83.67 235.90 83.67L235.90 83.67L212.90 83.67L220.68 75.79L220.68 104.51ZM220.68 34.87L220.68 77.73L212.90 69.42L234.93 69.42Q243.02 69.42 247.02 65.97Q251.01 62.51 251.01 56.36L251.01 56.36Q251.01 50.09 247.02 46.64Q243.02 43.19 234.93 43.19L234.93 43.19L212.90 43.19L220.68 34.87Z" transform="translate(0, 0)"></path></g></svg></svg>